{"title":"The Birds(1963)MP-4[DaScubaDude]","uid":12345905,"size":1463369598,"categoryP":"video","categoryS":"movies","magnet":"?xt=urn:btih:2ce0b02365707fd187fcf86306c1a484bd2937c2&amp;dn=The+Birds%281963%29MP-4%5BDaScubaDude%5D&amp;tr=udp%3A%2F%2Ftracker.openbittorrent.com%3A80&amp;tr=udp%3A%2F%2Fopen.demonii.com%3A1337&amp;tr=udp%3A%2F%2Ftracker.coppersurfer.tk%3A6969&amp;tr=udp%3A%2F%2Fexodus.desync.com%3A6969","seeders":4,"leechers":0,"uploader":"dascuba","files":1,"time":1441356284,"description":"The Birds (1963)\nPG-13  |  119 min  |  Horror  |  29 March 1963 (USA)\n7.8 Your rating:   -/10   Ratings: 7.8/10 from 117,697 users   \nReviews: 447 user | 173 critic\nA wealthy San Francisco socialite pursues a potential boyfriend to a small Northern California town that slowly takes a turn for the bizarre when birds of all kinds suddenly begin to attack people there in increasing numbers and with increasing viciousness.\n\nDirector: Alfred Hitchcock\nWriters: Daphne Du Maurier (from the story by), Evan Hunter (screenplay)\nStars: Rod Taylor, Tippi Hedren, Suzanne Pleshette |\n\nGeneral\nComplete name                            : C:The BirdsBIRDS_Title1.mp4\nFormat                                   : MPEG-4\nFormat profile                           : Base Media\nCodec ID                                 : isom\nFile size                                : 1.36 GiB\nDuration                                 : 1h 59mn\nOverall bit rate mode                    : Constant\nOverall bit rate                         : 1 633 Kbps\nMovie name                               : BIRDS\nGenre                                    : Horror\nWriting application                      : Lavf54.6.100\n\nVideo\nID                                       : 1\nFormat                                   : MPEG-4 Visual\nFormat settings, BVOP                    : No\nFormat settings, QPel                    : No\nFormat settings, GMC                     : No warppoints\nFormat settings, Matrix                  : Default (H.263)\nCodec ID                                 : 20\nDuration                                 : 1h 59mn\nBit rate mode                            : Constant\nBit rate                                 : 1 499 Kbps\nWidth                                    : 720 pixels\nHeight                                   : 404 pixels\nDisplay aspect ratio                     : 16:9\nFrame rate mode                          : Constant\nFrame rate                               : 29.970 fps\nColor space                              : YUV\nChroma subsampling                       : 4:2:0\nBit depth                                : 8 bits\nScan type                                : Progressive\nCompression mode                         : Lossy\nBits/(Pixel*Frame)                       : 0.172\nStream size                              : 1.25 GiB (92%)\nWriting library                          : Lavc54.23.100\n\nAudio\nID                                       : 2\nFormat                                   : MPEG Audio\nFormat version                           : Version 1\nFormat profile                           : Layer 3\nCodec ID                                 : 6B\nDuration                                 : 1h 59mn\nBit rate mode                            : Constant\nBit rate                                 : 128 Kbps\nChannel(s)                               : 2 channels\nSampling rate                            : 44.1 KHz\nCompression mode                         : Lossy\nStream size                              : 109 MiB (8%)","torrent":{"xt":"urn:btih:2ce0b02365707fd187fcf86306c1a484bd2937c2","amp;dn":"The+Birds%281963%29MP-4%5BDaScubaDude%5D","amp;tr":["udp%3A%2F%2Ftracker.openbittorrent.com%3A80","udp%3A%2F%2Fopen.demonii.com%3A1337","udp%3A%2F%2Ftracker.coppersurfer.tk%3A6969","udp%3A%2F%2Fexodus.desync.com%3A6969"],"infoHash":"2ce0b02365707fd187fcf86306c1a484bd2937c2","infoHashBuffer":{"type":"Buffer","data":[44,224,176,35,101,112,127,209,135,252,248,99,6,193,164,132,189,41,55,194]},"announce":[],"urlList":[]}}